<svg width="36" height="36" viewBox="0 0 36 36" fill="none" xmlns="http://www.w3.org/2000/svg">
<path d="M18 22.5C17.11 22.5 16.24 22.2361 15.4999 21.7416C14.7599 21.2471 14.1831 20.5443 13.8425 19.7221C13.5019 18.8998 13.4128 17.995 13.5865 17.1221C13.7601 16.2492 14.1887 15.4474 14.818 14.818C15.4474 14.1887 16.2492 13.7601 17.1221 13.5865C17.995 13.4128 18.8998 13.5019 19.7221 13.8425C20.5443 14.1831 21.2471 14.7599 21.7416 15.4999C22.2361 16.24 22.5 17.11 22.5 18C22.4985 19.193 22.0239 20.3367 21.1803 21.1803C20.3367 22.0239 19.193 22.4985 18 22.5V22.5ZM18 15.75C17.555 15.75 17.12 15.882 16.75 16.1292C16.38 16.3764 16.0916 16.7278 15.9213 17.139C15.751 17.5501 15.7064 18.0025 15.7932 18.439C15.8801 18.8754 16.0943 19.2763 16.409 19.591C16.7237 19.9057 17.1246 20.12 17.561 20.2068C17.9975 20.2936 18.4499 20.249 18.861 20.0787C19.2722 19.9084 19.6236 19.62 19.8708 19.25C20.118 18.88 20.25 18.445 20.25 18C20.2494 17.4034 20.0122 16.8315 19.5903 16.4097C19.1685 15.9878 18.5966 15.7506 18 15.75Z" fill="black"/>
<path d="M17.9998 27C15.4438 26.9317 12.9767 26.0479 10.9587 24.4776C8.94081 22.9074 7.47785 20.7331 6.78356 18.2723L6.71606 18L6.78356 17.7278C7.47785 15.2669 8.94081 13.0926 10.9587 11.5224C12.9767 9.95214 15.4438 9.06831 17.9998 9C20.5558 9.06831 23.0229 9.95214 25.0409 11.5224C27.0588 13.0926 28.5218 15.2669 29.2161 17.7278L29.2836 18L29.2161 18.2723C28.5218 20.7331 27.0588 22.9074 25.0409 24.4776C23.0229 26.0479 20.5558 26.9317 17.9998 27V27ZM9.03919 18C9.64599 19.9169 10.835 21.597 12.441 22.8067C14.0469 24.0165 15.9899 24.6957 17.9998 24.75C20.0097 24.6957 21.9527 24.0165 23.5586 22.8067C25.1646 21.597 26.3536 19.9169 26.9604 18C26.3536 16.0831 25.1646 14.403 23.5586 13.1933C21.9527 11.9835 20.0097 11.3043 17.9998 11.25C15.9899 11.3043 14.0469 11.9835 12.441 13.1933C10.835 14.403 9.64599 16.0831 9.03919 18V18Z" fill="black"/>
<path d="M18 33.75C14.885 33.75 11.8398 32.8263 9.24978 31.0957C6.6597 29.365 4.64098 26.9052 3.4489 24.0273C2.25682 21.1493 1.94492 17.9825 2.55264 14.9273C3.16036 11.8721 4.6604 9.06575 6.86307 6.86307C9.06575 4.6604 11.8721 3.16036 14.9273 2.55264C17.9825 1.94492 21.1493 2.25682 24.0273 3.4489C26.9052 4.64098 29.365 6.6597 31.0957 9.24978C32.8263 11.8398 33.75 14.885 33.75 18C33.7452 22.1757 32.0843 26.179 29.1317 29.1317C26.179 32.0843 22.1757 33.7452 18 33.75V33.75ZM18 4.50001C15.33 4.50001 12.7199 5.29177 10.4998 6.77517C8.27975 8.25857 6.54942 10.367 5.52763 12.8338C4.50585 15.3006 4.23851 18.015 4.75941 20.6337C5.28031 23.2525 6.56606 25.6579 8.45407 27.5459C10.3421 29.434 12.7475 30.7197 15.3663 31.2406C17.985 31.7615 20.6994 31.4942 23.1662 30.4724C25.633 29.4506 27.7414 27.7203 29.2248 25.5002C30.7082 23.2801 31.5 20.6701 31.5 18C31.4958 14.4209 30.0722 10.9895 27.5413 8.45867C25.0105 5.92783 21.5792 4.50418 18 4.50001V4.50001Z" fill="black"/>
</svg>
