<svg width="36" height="36" viewBox="0 0 36 36" fill="none" xmlns="http://www.w3.org/2000/svg">
<path d="M5 7H7V9H5V7Z" fill="black"/>
<path d="M9 7H11V9H9V7Z" fill="black"/>
<path d="M13 7H15V9H13V7Z" fill="black"/>
<path d="M32 4H4C3.46957 4 2.96086 4.21071 2.58579 4.58579C2.21071 4.96086 2 5.46957 2 6V30C2 30.5304 2.21071 31.0391 2.58579 31.4142C2.96086 31.7893 3.46957 32 4 32H32C32.5304 32 33.0391 31.7893 33.4142 31.4142C33.7893 31.0391 34 30.5304 34 30V6C34 5.46957 33.7893 4.96086 33.4142 4.58579C33.0391 4.21071 32.5304 4 32 4V4ZM4 6H32V10.2H4V6ZM4 30V11.8H32V30H4Z" fill="black"/>
</svg>
