<svg width="36" height="36" viewBox="0 0 36 36" fill="none" xmlns="http://www.w3.org/2000/svg">
<path d="M11.0625 25.1715L12.9375 22.8285L6.9015 18L12.9375 13.1715L11.0625 10.8285L3.5625 16.8285C3.38677 16.969 3.2449 17.1473 3.14741 17.3501C3.04992 17.5529 2.9993 17.775 2.9993 18C2.9993 18.225 3.04992 18.4471 3.14741 18.6499C3.2449 18.8527 3.38677 19.031 3.5625 19.1715L11.0625 25.1715ZM24.9375 10.8285L23.0625 13.1715L29.0985 18L23.0625 22.8285L24.9375 25.1715L32.4375 19.1715C32.6132 19.031 32.7551 18.8527 32.8526 18.6499C32.9501 18.4471 33.0007 18.225 33.0007 18C33.0007 17.775 32.9501 17.5529 32.8526 17.3501C32.7551 17.1473 32.6132 16.969 32.4375 16.8285L24.9375 10.8285Z" fill="white"/>
<path d="M22.464 4.824L16.464 31.824L13.5345 31.173L19.5345 4.173L22.464 4.824Z" fill="white"/>
</svg>
