<svg width="36" height="36" viewBox="0 0 36 36" fill="none" xmlns="http://www.w3.org/2000/svg">
<path d="M9 17.41V27H18.59L16.59 25H11V19.41L9 17.41Z" fill="black"/>
<path d="M34.87 32.29L32 29.38V32H4.00002V27.85H6.00002V26.25H4.00002V19.6H6.00002V18H4.00002V11.6H6.00002V9.99996H4.00002V4.40996L19.94 20.26V17.44L3.71002 1.28996C3.57015 1.14893 3.39145 1.05275 3.1967 1.01368C3.00195 0.974607 2.79998 0.994419 2.61654 1.07059C2.43309 1.14675 2.27649 1.27582 2.16668 1.44134C2.05688 1.60686 1.99886 1.80133 2.00002 1.99996V33C2.00002 33.2652 2.10537 33.5195 2.29291 33.7071C2.48045 33.8946 2.7348 34 3.00002 34H34.16C34.3586 34.0011 34.5531 33.9431 34.7186 33.8333C34.8841 33.7235 35.0132 33.5669 35.0894 33.3834C35.1656 33.2 35.1854 32.998 35.1463 32.8033C35.1072 32.6085 35.011 32.4298 34.87 32.29V32.29Z" fill="black"/>
<path d="M24 30H28C28.5304 30 29.0391 29.7893 29.4142 29.4143C29.7893 29.0392 30 28.5305 30 28V8.70004L27.7 4.47004C27.5221 4.16186 27.2652 3.90672 26.9559 3.73094C26.6465 3.55515 26.2958 3.46509 25.94 3.47004C25.5761 3.47293 25.22 3.57503 24.9098 3.76533C24.5997 3.95564 24.3474 4.22695 24.18 4.55004L22 8.72004V28C22 28.5305 22.2107 29.0392 22.5858 29.4143C22.9609 29.7893 23.4696 30 24 30ZM24 9.20004L25.94 5.43004L28 9.21004V24H24V9.20004ZM24 25.63H28V28.07H24V25.63Z" fill="black"/>
</svg>
