<svg width="16" height="20" viewBox="0 0 16 20" fill="none" xmlns="http://www.w3.org/2000/svg">
<path d="M10.5933 0.666672H1.22001C0.88993 0.67541 0.57663 0.814055 0.348191 1.05248C0.119751 1.29091 -0.00537049 1.60985 1.42863e-05 1.94001V18.06C-0.00537049 18.3902 0.119751 18.7091 0.348191 18.9475C0.57663 19.186 0.88993 19.3246 1.22001 19.3333H14.78C15.1101 19.3246 15.4234 19.186 15.6518 18.9475C15.8803 18.7091 16.0054 18.3902 16 18.06V5.94667L10.5933 0.666672ZM10.3933 2.32667L14.3933 6.26001H10.3933V2.32667ZM1.33335 18V2.00001H9.33335V7.33334H14.6667V18H1.33335Z" fill="#666666"/>
</svg>
