<svg width="22" height="22" viewBox="0 0 22 22" fill="none" xmlns="http://www.w3.org/2000/svg">
<path d="M10.9906 0.788285C5.19453 0.785941 0.5 5.47814 0.5 11.2696C0.5 15.8492 3.43672 19.7422 7.52656 21.1719C8.07734 21.3102 7.99297 20.9188 7.99297 20.6516V18.8352C4.8125 19.2078 4.68359 17.1032 4.47031 16.7516C4.03906 16.0157 3.01953 15.8281 3.32422 15.4766C4.04844 15.1039 4.78672 15.5703 5.64219 16.8336C6.26094 17.75 7.46797 17.5953 8.07969 17.443C8.21328 16.8922 8.49922 16.4 8.89297 16.018C5.59766 15.4274 4.22422 13.4164 4.22422 11.0258C4.22422 9.86564 4.60625 8.79923 5.35625 7.93908C4.87812 6.52111 5.40078 5.30704 5.47109 5.12657C6.83281 5.0047 8.24844 6.10157 8.35859 6.18829C9.13203 5.9797 10.0156 5.86954 11.0047 5.86954C11.9984 5.86954 12.8844 5.98439 13.6648 6.19532C13.9297 5.99376 15.2422 5.05157 16.5078 5.16642C16.5758 5.34689 17.0867 6.53282 16.6367 7.93205C17.3961 8.79455 17.7828 9.87033 17.7828 11.0328C17.7828 13.4281 16.4 15.4414 13.0953 16.0227C13.3784 16.301 13.6031 16.633 13.7564 16.9992C13.9098 17.3654 13.9886 17.7585 13.9883 18.1555V20.7922C14.007 21.0032 13.9883 21.2118 14.3398 21.2118C18.4906 19.8125 21.4789 15.8914 21.4789 11.2719C21.4789 5.47814 16.782 0.788285 10.9906 0.788285Z" fill="#C0C0C0"/>
</svg>
