<svg width="25" height="24" viewBox="0 0 25 24" fill="none" xmlns="http://www.w3.org/2000/svg">
<path d="M22.7842 13.4633C21.9579 13.6827 21.1065 13.7938 20.2516 13.7937C17.6482 13.7937 15.2033 12.7819 13.3669 10.9462C12.1609 9.73377 11.294 8.22655 10.8524 6.57479C10.4108 4.92303 10.41 3.18441 10.85 1.53224C10.905 1.32567 10.9046 1.10828 10.849 0.901883C10.7934 0.695487 10.6845 0.507342 10.5331 0.356319C10.3818 0.205296 10.1934 0.0967063 9.98686 0.041443C9.78029 -0.0138203 9.56283 -0.0138142 9.35627 0.0414607C7.28715 0.59265 5.39941 1.67806 3.88241 3.18879C-0.870795 7.94027 -0.870795 15.6745 3.88241 20.4284C5.01221 21.5641 6.35611 22.4645 7.83634 23.0776C9.31657 23.6906 10.9037 24.0041 12.506 24C14.1078 24.0044 15.6946 23.6912 17.1744 23.0783C18.6543 22.4655 19.9978 21.5652 21.1271 20.4296C22.6395 18.9129 23.7258 17.0249 24.2768 14.9553C24.3315 14.7488 24.3311 14.5316 24.2755 14.3254C24.2199 14.1191 24.1111 13.9311 23.96 13.78C23.8089 13.629 23.6208 13.5202 23.4144 13.4646C23.2081 13.4091 22.9908 13.4086 22.7842 13.4633ZM19.4041 18.706C18.5005 19.6143 17.4256 20.3344 16.2418 20.8246C15.0579 21.3148 13.7886 21.5655 12.5072 21.562C11.2253 21.5652 9.9556 21.3144 8.77136 20.8239C7.58712 20.3335 6.51189 19.6132 5.60785 18.7048C1.80578 14.9029 1.80578 8.71552 5.60785 4.91361C6.34254 4.18001 7.19074 3.56961 8.1198 3.1059C7.98381 4.86005 8.22827 6.62286 8.83647 8.27388C9.44468 9.9249 10.4023 11.4252 11.6439 12.6722C12.8886 13.9172 14.389 14.8772 16.0413 15.4856C17.6936 16.094 19.4584 16.3365 21.2137 16.1962C20.7473 17.1234 20.1365 17.9705 19.4041 18.706Z" fill="white"/>
</svg>
