<svg width="20" height="24" viewBox="0 0 20 24" fill="none" xmlns="http://www.w3.org/2000/svg">
<g clip-path="url(#clip0)">
<path d="M19.2656 4.58907L14.8958 0.656253C14.4271 0.234378 13.7917 -0.00468445 13.1302 -0.00468445H2.5C1.11979 3.05241e-06 0 1.00782 0 2.25V21.75C0 22.9922 1.11979 24 2.5 24H17.5C18.8802 24 20 22.9922 20 21.75V6.18282C20 5.5875 19.7344 5.01094 19.2656 4.58907ZM17.2969 6H13.3333V2.43282L17.2969 6ZM2.5 21.75V2.25H10.8333V7.125C10.8333 7.74844 11.3906 8.25 12.0833 8.25H17.5V21.75H2.5ZM15.5312 15.0141C14.8958 14.4516 13.0833 14.6063 12.1771 14.7094C11.2812 14.2172 10.6823 13.5375 10.2604 12.5391C10.4635 11.7844 10.7865 10.6359 10.5417 9.91407C10.3229 8.68594 8.57292 8.80782 8.32292 9.6375C8.09375 10.3922 8.30208 11.4422 8.6875 12.7828C8.16667 13.9031 7.39062 15.4078 6.84375 16.2703C5.80208 16.7531 4.39583 17.4984 4.1875 18.4359C4.01562 19.1766 5.54167 21.0234 8.15104 16.9734C9.31771 16.6266 10.5885 16.2 11.7135 16.0313C12.6979 16.5094 13.849 16.8281 14.6198 16.8281C15.9479 16.8281 16.0781 15.5063 15.5312 15.0141ZM5.21354 18.6609C5.47917 18.0188 6.48958 17.2781 6.79688 17.0203C5.80729 18.4406 5.21354 18.6938 5.21354 18.6609ZM9.46354 9.72657C9.84896 9.72657 9.8125 11.2313 9.55729 11.6391C9.32812 10.9875 9.33333 9.72657 9.46354 9.72657ZM8.19271 16.1297C8.69792 15.3375 9.13021 14.3953 9.47917 13.5656C9.91146 14.2734 10.4635 14.8406 11.0469 15.2297C9.96354 15.4313 9.02083 15.8438 8.19271 16.1297ZM15.0469 15.8953C15.0469 15.8953 14.7865 16.1766 13.1042 15.5297C14.9323 15.4078 15.2344 15.7828 15.0469 15.8953Z" fill="#C0C0C0"/>
</g>
<defs>
<clipPath id="clip0">
<rect width="20" height="24" fill="white"/>
</clipPath>
</defs>
</svg>
