<svg width="24" height="24" viewBox="0 0 24 24" fill="none" xmlns="http://www.w3.org/2000/svg">
<path d="M19.7 18.8C20.2 18.2 20.1 17.7 20.1 17.7H21.6C21.6 17.7 21.6 18.1 21.5 18.6C21.4 19 21.3 19.3 21.2 19.6C21 20.3 20 21.1 20 21.1C18.9 22 17.7 21.9 17.7 21.9C17.7 21.9 16.3 22.1 15.2 21.4C14.1 20.7 13.2 19.2 13.2 19.2C13.2 19.2 8.79997 20.4 5.39997 17.5C1.99997 14.6 2.19997 11.1 2.19997 10.8C2.19997 10.1 2.59997 2.29997 10.8 1.99997C15.6 1.79997 18.2 4.79997 19.2 7.19997C19.9 8.89997 19.9 10.2 19.9 10.4C19.9 10.6 19.9 11.5 19.7 12.4C19.6 13.3 19.2 14.3 18.9 14.8C18.6 15.3 18.2 16 17.7 16.5C17.2 17.1 16.6 17.6 16.5 17.7C16.5 17.7 17.5 18.9 18.1 19.1C18.3 19.1 19.2 19.4 19.7 18.8V18.8ZM12.7 17.3C12.8 17.2 12.4 16.7 12.2 16.4C12 16.1 12.3 16.5 11.5 15.4C11.2 14.9 10.8 14.7 10.2 14.6H9.49997C8.99997 14.6 8.69997 14.7 8.59997 14.7C8.59997 14.6 8.39997 14.4 8.29997 14.2C8.19997 14 8.19997 13.7 8.19997 13.7C8.19997 13.5 9.69997 12.8 11.4 12.8C12.8 12.8 13.8 13.6 14.2 14C14.6 14.3 14.7 14.7 15.1 15C15.1 15 15.2 15 15.2 15.1C15.6 15.4 16.1 12.1 16 9.89997C15.9 7.69997 15.8 6.59997 15 5.49997C14.3 4.49997 12.8 3.69997 11.4 3.69997C10.7 3.69997 8.39997 3.79997 7.39997 5.49997C6.19997 7.49997 6.39997 11.1 6.39997 11.1C6.39997 11.1 6.09997 14.3 7.79997 16C9.49997 17.7 11.2 17.4 12 17.4L12.7 17.3V17.3Z" fill="#C0C0C0"/>
</svg>
