<svg width="24" height="24" viewBox="0 0 24 24" fill="none" xmlns="http://www.w3.org/2000/svg">
<path d="M12 19.5C12.3978 19.5 12.7794 19.658 13.0607 19.9393C13.342 20.2206 13.5 20.6022 13.5 21V22.5C13.5 22.8978 13.342 23.2794 13.0607 23.5607C12.7794 23.842 12.3978 24 12 24C11.6022 24 11.2206 23.842 10.9393 23.5607C10.658 23.2794 10.5 22.8978 10.5 22.5V21C10.5 20.6022 10.658 20.2206 10.9393 19.9393C11.2206 19.658 11.6022 19.5 12 19.5ZM12 4.5C11.6022 4.5 11.2206 4.34196 10.9393 4.06066C10.658 3.77936 10.5 3.39782 10.5 3V1.5C10.5 1.10218 10.658 0.720644 10.9393 0.43934C11.2206 0.158035 11.6022 0 12 0C12.3978 0 12.7794 0.158035 13.0607 0.43934C13.342 0.720644 13.5 1.10218 13.5 1.5V3C13.5 3.39782 13.342 3.77936 13.0607 4.06066C12.7794 4.34196 12.3978 4.5 12 4.5V4.5ZM22.5 10.5C22.8978 10.5 23.2794 10.658 23.5607 10.9393C23.842 11.2206 24 11.6022 24 12C24 12.3978 23.842 12.7794 23.5607 13.0607C23.2794 13.342 22.8978 13.5 22.5 13.5H21C20.6022 13.5 20.2206 13.342 19.9393 13.0607C19.658 12.7794 19.5 12.3978 19.5 12C19.5 11.6022 19.658 11.2206 19.9393 10.9393C20.2206 10.658 20.6022 10.5 21 10.5H22.5ZM4.5 12C4.5 12.3978 4.34196 12.7794 4.06066 13.0607C3.77936 13.342 3.39782 13.5 3 13.5H1.5C1.10218 13.5 0.720644 13.342 0.43934 13.0607C0.158035 12.7794 0 12.3978 0 12C0 11.6022 0.158035 11.2206 0.43934 10.9393C0.720644 10.658 1.10218 10.5 1.5 10.5H3C3.39782 10.5 3.77936 10.658 4.06066 10.9393C4.34196 11.2206 4.5 11.6022 4.5 12ZM19.425 17.304L20.4855 18.3645C20.7587 18.6474 20.9099 19.0263 20.9065 19.4196C20.9031 19.8129 20.7453 20.1891 20.4672 20.4672C20.1891 20.7453 19.8129 20.9031 19.4196 20.9065C19.0263 20.9099 18.6474 20.7587 18.3645 20.4855L17.304 19.425C17.0308 19.1421 16.8796 18.7632 16.883 18.3699C16.8864 17.9766 17.0442 17.6004 17.3223 17.3223C17.6004 17.0442 17.9766 16.8864 18.3699 16.883C18.7632 16.8796 19.1421 17.0308 19.425 17.304ZM4.575 6.696L3.5145 5.6355C3.37523 5.49623 3.26476 5.3309 3.18939 5.14894C3.11402 4.96698 3.07523 4.77195 3.07523 4.575C3.07523 4.37805 3.11402 4.18302 3.18939 4.00106C3.26476 3.8191 3.37523 3.65377 3.5145 3.5145C3.65377 3.37523 3.8191 3.26476 4.00106 3.18939C4.18302 3.11402 4.37805 3.07523 4.575 3.07523C4.77195 3.07523 4.96698 3.11402 5.14894 3.18939C5.3309 3.26476 5.49623 3.37523 5.6355 3.5145L6.696 4.575C6.83527 4.71427 6.94574 4.8796 7.02111 5.06156C7.09648 5.24352 7.13527 5.43855 7.13527 5.6355C7.13527 5.83245 7.09648 6.02748 7.02111 6.20944C6.94574 6.3914 6.83527 6.55673 6.696 6.696C6.55673 6.83527 6.3914 6.94574 6.20944 7.02111C6.02748 7.09648 5.83245 7.13527 5.6355 7.13527C5.43855 7.13527 5.24352 7.09648 5.06156 7.02111C4.8796 6.94574 4.71427 6.83527 4.575 6.696V6.696ZM19.425 6.696C19.1437 6.97726 18.7623 7.13527 18.3645 7.13527C17.9667 7.13527 17.5853 6.97726 17.304 6.696C17.0227 6.41474 16.8647 6.03326 16.8647 5.6355C16.8647 5.23774 17.0227 4.85626 17.304 4.575L18.3645 3.5145C18.6458 3.23324 19.0272 3.07523 19.425 3.07523C19.8228 3.07523 20.2042 3.23324 20.4855 3.5145C20.7668 3.79576 20.9248 4.17724 20.9248 4.575C20.9248 4.97276 20.7668 5.35424 20.4855 5.6355L19.425 6.696ZM4.575 17.304C4.8579 17.0308 5.23681 16.8796 5.6301 16.883C6.0234 16.8864 6.39962 17.0442 6.67773 17.3223C6.95584 17.6004 7.11359 17.9766 7.11701 18.3699C7.12043 18.7632 6.96924 19.1421 6.696 19.425L5.6355 20.4855C5.3526 20.7587 4.97369 20.9099 4.5804 20.9065C4.1871 20.9031 3.81088 20.7453 3.53277 20.4672C3.25466 20.1891 3.09691 19.8129 3.09349 19.4196C3.09007 19.0263 3.24126 18.6474 3.5145 18.3645L4.575 17.304Z" fill="#050505"/>
<path d="M12 6C10.4087 6 8.88258 6.63214 7.75736 7.75736C6.63214 8.88258 6 10.4087 6 12C6 13.5913 6.63214 15.1174 7.75736 16.2426C8.88258 17.3679 10.4087 18 12 18C13.5913 18 15.1174 17.3679 16.2426 16.2426C17.3679 15.1174 18 13.5913 18 12C18 10.4087 17.3679 8.88258 16.2426 7.75736C15.1174 6.63214 13.5913 6 12 6ZM12 15.75C11.0054 15.75 10.0516 15.3549 9.34835 14.6517C8.64509 13.9484 8.25 12.9946 8.25 12C8.25 11.0054 8.64509 10.0516 9.34835 9.34835C10.0516 8.64509 11.0054 8.25 12 8.25C12.9946 8.25 13.9484 8.64509 14.6517 9.34835C15.3549 10.0516 15.75 11.0054 15.75 12C15.75 12.9946 15.3549 13.9484 14.6517 14.6517C13.9484 15.3549 12.9946 15.75 12 15.75Z" fill="#050505"/>
</svg>
