<svg width="24" height="21" viewBox="0 0 24 21" fill="none" xmlns="http://www.w3.org/2000/svg">
<path d="M24 2.48593C23.1169 2.90755 22.1679 3.19251 21.1719 3.3207C22.1887 2.66459 22.9693 1.62563 23.3369 0.387708C22.3704 1.00524 21.3129 1.44033 20.2103 1.67418C19.312 0.643891 18.0324 0 16.6162 0C13.8968 0 11.6921 2.37369 11.6921 5.30133C11.6921 5.7169 11.7357 6.12146 11.8196 6.50957C7.72744 6.28841 4.09931 4.17787 1.67072 0.97043C1.24697 1.75342 1.00416 2.66419 1.00416 3.63563C1.00416 5.47494 1.8735 7.09754 3.19462 8.04829C2.4127 8.02192 1.64798 7.79454 0.964313 7.38512C0.964031 7.40732 0.964031 7.42953 0.964031 7.45184C0.964031 10.0204 2.66128 12.1632 4.91372 12.6502C4.18864 12.8625 3.42809 12.8936 2.69016 12.7411C3.31669 14.8472 5.13516 16.3799 7.28972 16.4228C5.60456 17.8446 3.48141 18.6922 1.17459 18.6922C0.777094 18.6922 0.385219 18.6671 0 18.6181C2.17903 20.1223 4.76719 21 7.54781 21C16.6047 21 21.5573 12.9217 21.5573 5.91615C21.5573 5.68621 21.5526 5.45758 21.543 5.23027C22.507 4.47997 23.339 3.55065 24 2.48593Z" fill="#C0C0C0"/>
</svg>
