<svg xmlns="http://www.w3.org/2000/svg" viewBox="0 0 512 512"><rect width="512" height="512" rx="16"/><path d="M126.032 169.872c-6.144.341-10.667 1.024-13.568 2.048-2.731 1.024-4.608 2.987-5.632 5.888s-1.536 7.595-1.536 14.08v126.976c0 6.485.512 11.179 1.536 14.08s2.901 4.864 5.632 5.888c2.901.853 7.424 1.28 13.568 1.28h18.688c10.581 0 18.603-1.451 24.064-4.352 5.632-3.072 9.728-7.936 12.288-14.592 2.56-6.656 4.437-16.299 5.632-28.928h5.888c-.512 5.291-.768 12.288-.768 20.992 0 9.728.597 20.651 1.792 32.768-11.605-.512-31.147-.768-58.624-.768-32.768 0-57.515.256-74.24.768v-5.12c6.144-.341 10.581-1.024 13.312-2.048 2.901-1.024 4.864-2.987 5.888-5.888s1.536-7.595 1.536-14.08V191.888c0-6.485-.512-11.179-1.536-14.08s-2.987-4.864-5.888-5.888c-2.73-1.024-7.168-1.707-13.312-2.048v-5.12c7.168.512 18.09.768 32.768.768 13.653 0 24.491-.256 32.512-.768v5.12z"/><path d="M333.992 165.52c7.68 0 14.08-.256 19.2-.768v5.12c-9.557 2.219-16.299 9.643-20.224 22.272L284.584 347.28h-4.096l-44.544-131.84-40.704 131.84h-4.096l-54.272-161.024c-3.584-10.581-9.472-16.043-17.664-16.384v-5.12c6.997.512 16.128.768 27.392.768 12.288 0 21.504-.256 27.648-.768v5.12c-4.608.341-7.851 1.195-9.728 2.56-1.877 1.365-2.816 3.499-2.816 6.4 0 2.731.939 6.912 2.816 12.544l37.376 114.176 31.232-99.072-6.912-20.224c-3.413-10.581-8.448-16.043-15.104-16.384v-5.12c6.144.512 14.421.768 24.832.768 14.677 0 25.6-.256 32.768-.768v5.12c-6.485.341-11.008 1.109-13.568 2.304-2.56 1.024-3.84 3.328-3.84 6.912 0 3.072.853 7.168 2.56 12.288l36.864 113.92 31.488-99.072c2.731-8.363 4.096-15.275 4.096-20.736 0-5.632-1.707-9.557-5.12-11.776-3.413-2.389-8.96-3.669-16.64-3.84v-5.12c9.728.512 19.541.768 29.44.768z"/><path d="M443.36 327.824c3.243 4.949 5.973 8.277 8.192 9.984 2.219 1.707 5.205 2.645 8.96 2.816V346c-11.605-.683-18.944-1.024-22.016-1.024-5.632 0-17.664.341-36.096 1.024v-5.376c6.656 0 11.349-.256 14.08-.768 2.731-.683 4.096-1.792 4.096-3.328 0-1.365-.597-2.901-1.792-4.608l-43.776-67.072-27.648 41.216c-6.485 9.728-9.728 17.237-9.728 22.528 0 4.437 1.963 7.595 5.888 9.472 3.925 1.707 9.557 2.645 16.896 2.816V346c-9.728-.512-21.248-.768-34.56-.768-9.387 0-16.64.256-21.76.768v-5.12c5.12-.683 9.984-2.987 14.592-6.912 4.779-3.925 9.557-9.472 14.336-16.64l38.656-57.6-50.176-76.8c-3.243-4.949-5.973-8.277-8.192-9.984-2.219-1.707-5.205-2.645-8.96-2.816v-5.376c11.605.683 18.944 1.024 22.016 1.024 11.435 0 23.467-.341 36.096-1.024v5.376c-6.144 0-10.581.512-13.312 1.536-2.56.853-3.84 2.219-3.84 4.096 0 1.024.768 2.901 2.304 5.632l39.936 60.928 25.088-37.632c7.339-10.752 11.008-18.944 11.008-24.576 0-3.584-1.621-6.144-4.864-7.68-3.243-1.536-8.192-2.389-14.848-2.56v-5.12c9.728.512 19.541.768 29.44.768 9.387 0 16.64-.256 21.76-.768v5.12c-5.12.683-10.069 2.987-14.848 6.912-4.608 3.925-9.301 9.472-14.08 16.64l-35.84 53.504 52.992 80.896z"/><path d="M60 345h402v10H60zM60 156h398v10H60z"/></svg>