<svg width="512" height="512" viewBox="0 0 512 512" fill="none" xmlns="http://www.w3.org/2000/svg">
<rect width="512" height="512" rx="16" fill="#0E1015"/>
<path d="M126.032 169.872C119.888 170.213 115.365 170.896 112.464 171.92C109.733 172.944 107.856 174.907 106.832 177.808C105.808 180.709 105.296 185.403 105.296 191.888V318.864C105.296 325.349 105.808 330.043 106.832 332.944C107.856 335.845 109.733 337.808 112.464 338.832C115.365 339.685 119.888 340.112 126.032 340.112H144.72C155.301 340.112 163.323 338.661 168.784 335.76C174.416 332.688 178.512 327.824 181.072 321.168C183.632 314.512 185.509 304.869 186.704 292.24H192.592C192.08 297.531 191.824 304.528 191.824 313.232C191.824 322.96 192.421 333.883 193.616 346C182.011 345.488 162.469 345.232 134.992 345.232C102.224 345.232 77.4773 345.488 60.752 346V340.88C66.896 340.539 71.3333 339.856 74.064 338.832C76.9653 337.808 78.928 335.845 79.952 332.944C80.976 330.043 81.488 325.349 81.488 318.864V191.888C81.488 185.403 80.976 180.709 79.952 177.808C78.928 174.907 76.9653 172.944 74.064 171.92C71.3333 170.896 66.896 170.213 60.752 169.872V164.752C67.92 165.264 78.8427 165.52 93.52 165.52C107.173 165.52 118.011 165.264 126.032 164.752V169.872Z" fill="white"/>
<path d="M333.992 165.52C341.672 165.52 348.072 165.264 353.192 164.752V169.872C343.635 172.091 336.893 179.515 332.968 192.144L284.584 347.28H282.536H280.488L235.944 215.44L195.24 347.28H193.192H191.144L136.872 186.256C133.288 175.675 127.4 170.213 119.208 169.872V164.752C126.205 165.264 135.336 165.52 146.6 165.52C158.888 165.52 168.104 165.264 174.248 164.752V169.872C169.64 170.213 166.397 171.067 164.52 172.432C162.643 173.797 161.704 175.931 161.704 178.832C161.704 181.563 162.643 185.744 164.52 191.376L201.896 305.552L233.128 206.48L226.216 186.256C222.803 175.675 217.768 170.213 211.112 169.872V164.752C217.256 165.264 225.533 165.52 235.944 165.52C250.621 165.52 261.544 165.264 268.712 164.752V169.872C262.227 170.213 257.704 170.981 255.144 172.176C252.584 173.2 251.304 175.504 251.304 179.088C251.304 182.16 252.157 186.256 253.864 191.376L290.728 305.296L322.216 206.224C324.947 197.861 326.312 190.949 326.312 185.488C326.312 179.856 324.605 175.931 321.192 173.712C317.779 171.323 312.232 170.043 304.552 169.872V164.752C314.28 165.264 324.093 165.52 333.992 165.52Z" fill="white"/>
<path d="M443.36 327.824C446.603 332.773 449.333 336.101 451.552 337.808C453.771 339.515 456.757 340.453 460.512 340.624V346C448.907 345.317 441.568 344.976 438.496 344.976C432.864 344.976 420.832 345.317 402.4 346V340.624C409.056 340.624 413.749 340.368 416.48 339.856C419.211 339.173 420.576 338.064 420.576 336.528C420.576 335.163 419.979 333.627 418.784 331.92L375.008 264.848L347.36 306.064C340.875 315.792 337.632 323.301 337.632 328.592C337.632 333.029 339.595 336.187 343.52 338.064C347.445 339.771 353.077 340.709 360.416 340.88V346C350.688 345.488 339.168 345.232 325.856 345.232C316.469 345.232 309.216 345.488 304.096 346V340.88C309.216 340.197 314.08 337.893 318.688 333.968C323.467 330.043 328.245 324.496 333.024 317.328L371.68 259.728L321.504 182.928C318.261 177.979 315.531 174.651 313.312 172.944C311.093 171.237 308.107 170.299 304.352 170.128V164.752C315.957 165.435 323.296 165.776 326.368 165.776C337.803 165.776 349.835 165.435 362.464 164.752V170.128C356.32 170.128 351.883 170.64 349.152 171.664C346.592 172.517 345.312 173.883 345.312 175.76C345.312 176.784 346.08 178.661 347.616 181.392L387.552 242.32L412.64 204.688C419.979 193.936 423.648 185.744 423.648 180.112C423.648 176.528 422.027 173.968 418.784 172.432C415.541 170.896 410.592 170.043 403.936 169.872V164.752C413.664 165.264 423.477 165.52 433.376 165.52C442.763 165.52 450.016 165.264 455.136 164.752V169.872C450.016 170.555 445.067 172.859 440.288 176.784C435.68 180.709 430.987 186.256 426.208 193.424L390.368 246.928L443.36 327.824Z" fill="white"/>
<rect x="60" y="345" width="402" height="10" fill="#0E1015"/>
<rect x="60" y="156" width="398" height="10" fill="#0E1015"/>
</svg>
